<svg width="40" height="40" viewBox="0 0 40 40" fill="none" xmlns="http://www.w3.org/2000/svg">
<path d="M30.0001 10C28.9834 10 28.0501 9.41671 27.5834 8.51671L26.3834 6.10004C25.6168 4.58337 23.6168 3.33337 21.9168 3.33337H18.1001C16.3834 3.33337 14.3834 4.58337 13.6168 6.10004L12.4168 8.51671C11.9501 9.41671 11.0168 10 10.0001 10C6.38345 10 3.51678 13.05 3.75012 16.65L4.61678 30.4167C4.81678 33.85 6.66678 36.6667 11.2668 36.6667H28.7334C33.3334 36.6667 35.1668 33.85 35.3834 30.4167L36.2501 16.65C36.4834 13.05 33.6168 10 30.0001 10ZM17.5001 12.0834H22.5001C23.1835 12.0834 23.7501 12.65 23.7501 13.3334C23.7501 14.0167 23.1835 14.5834 22.5001 14.5834H17.5001C16.8168 14.5834 16.2501 14.0167 16.2501 13.3334C16.2501 12.65 16.8168 12.0834 17.5001 12.0834ZM20.0001 30.2C16.9001 30.2 14.3668 27.6834 14.3668 24.5667C14.3668 21.45 16.8834 18.9334 20.0001 18.9334C23.1168 18.9334 25.6334 21.45 25.6334 24.5667C25.6334 27.6834 23.1001 30.2 20.0001 30.2Z" fill="white"/>
</svg>
