<svg width="37" height="37" viewBox="0 0 37 37" fill="none" xmlns="http://www.w3.org/2000/svg">
<rect x="0.464844" y="0.338867" width="36.0702" height="36.0702" rx="18.0351" fill="#3B75C2" fill-opacity="0.15"/>
<path d="M12.146 12.854C12.0995 12.8075 12.0627 12.7523 12.0375 12.6916C12.0123 12.6309 11.9994 12.5658 11.9994 12.5C11.9994 12.4343 12.0123 12.3692 12.0375 12.3084C12.0627 12.2477 12.0995 12.1925 12.146 12.146C12.1925 12.0995 12.2477 12.0627 12.3084 12.0375C12.3692 12.0123 12.4343 11.9994 12.5 11.9994C12.5658 11.9994 12.6309 12.0123 12.6916 12.0375C12.7523 12.0627 12.8075 12.0995 12.854 12.146L18 17.293L23.146 12.146C23.1925 12.0995 23.2477 12.0627 23.3084 12.0375C23.3692 12.0123 23.4343 11.9994 23.5 11.9994C23.5658 11.9994 23.6309 12.0123 23.6916 12.0375C23.7523 12.0627 23.8075 12.0995 23.854 12.146C23.9005 12.1925 23.9374 12.2477 23.9625 12.3084C23.9877 12.3692 24.0007 12.4343 24.0007 12.5C24.0007 12.5658 23.9877 12.6309 23.9625 12.6916C23.9374 12.7523 23.9005 12.8075 23.854 12.854L18.707 18L23.854 23.146C23.9005 23.1925 23.9374 23.2477 23.9625 23.3084C23.9877 23.3692 24.0007 23.4343 24.0007 23.5C24.0007 23.5658 23.9877 23.6309 23.9625 23.6916C23.9374 23.7523 23.9005 23.8075 23.854 23.854C23.8075 23.9005 23.7523 23.9374 23.6916 23.9625C23.6309 23.9877 23.5658 24.0007 23.5 24.0007C23.4343 24.0007 23.3692 23.9877 23.3084 23.9625C23.2477 23.9374 23.1925 23.9005 23.146 23.854L18 18.707L12.854 23.854C12.8075 23.9005 12.7523 23.9374 12.6916 23.9625C12.6309 23.9877 12.5658 24.0007 12.5 24.0007C12.4343 24.0007 12.3692 23.9877 12.3084 23.9625C12.2477 23.9374 12.1925 23.9005 12.146 23.854C12.0995 23.8075 12.0627 23.7523 12.0375 23.6916C12.0123 23.6309 11.9994 23.5658 11.9994 23.5C11.9994 23.4343 12.0123 23.3692 12.0375 23.3084C12.0627 23.2477 12.0995 23.1925 12.146 23.146L17.293 18L12.146 12.854Z" fill="#3B75C2"/>
</svg>
