<svg width="37" height="37" viewBox="0 0 37 37" fill="none" xmlns="http://www.w3.org/2000/svg">
<rect x="0.464844" y="0.338867" width="36.0702" height="36.0702" rx="18.0351" fill="white"/>
<path d="M12.1461 12.854C12.0997 12.8075 12.0628 12.7523 12.0376 12.6916C12.0125 12.6309 11.9995 12.5658 11.9995 12.5C11.9995 12.4343 12.0125 12.3692 12.0376 12.3084C12.0628 12.2477 12.0997 12.1925 12.1461 12.146C12.1926 12.0995 12.2478 12.0627 12.3086 12.0375C12.3693 12.0123 12.4344 11.9994 12.5001 11.9994C12.5659 11.9994 12.631 12.0123 12.6917 12.0375C12.7525 12.0627 12.8077 12.0995 12.8541 12.146L18.0001 17.293L23.1461 12.146C23.1926 12.0995 23.2478 12.0627 23.3086 12.0375C23.3693 12.0123 23.4344 11.9994 23.5001 11.9994C23.5659 11.9994 23.631 12.0123 23.6917 12.0375C23.7525 12.0627 23.8077 12.0995 23.8541 12.146C23.9006 12.1925 23.9375 12.2477 23.9627 12.3084C23.9878 12.3692 24.0008 12.4343 24.0008 12.5C24.0008 12.5658 23.9878 12.6309 23.9627 12.6916C23.9375 12.7523 23.9006 12.8075 23.8541 12.854L18.7071 18L23.8541 23.146C23.9006 23.1925 23.9375 23.2477 23.9627 23.3084C23.9878 23.3692 24.0008 23.4343 24.0008 23.5C24.0008 23.5658 23.9878 23.6309 23.9627 23.6916C23.9375 23.7523 23.9006 23.8075 23.8541 23.854C23.8077 23.9005 23.7525 23.9374 23.6917 23.9625C23.631 23.9877 23.5659 24.0007 23.5001 24.0007C23.4344 24.0007 23.3693 23.9877 23.3086 23.9625C23.2478 23.9374 23.1926 23.9005 23.1461 23.854L18.0001 18.707L12.8541 23.854C12.8077 23.9005 12.7525 23.9374 12.6917 23.9625C12.631 23.9877 12.5659 24.0007 12.5001 24.0007C12.4344 24.0007 12.3693 23.9877 12.3086 23.9625C12.2478 23.9374 12.1926 23.9005 12.1461 23.854C12.0997 23.8075 12.0628 23.7523 12.0376 23.6916C12.0125 23.6309 11.9995 23.5658 11.9995 23.5C11.9995 23.4343 12.0125 23.3692 12.0376 23.3084C12.0628 23.2477 12.0997 23.1925 12.1461 23.146L17.2931 18L12.1461 12.854Z" fill="#3B75C2"/>
</svg>
